HIERARCHY
ROOT root
{
	OFFSET	0	13.1	24.9
	CHANNELS 6  Xposition Yposition Zposition Xrotation Yrotation Zrotation
	JOINT spine_1
	{
		OFFSET	0	9.99999	0
		CHANNELS 3  Xrotation Yrotation Zrotation
		JOINT spine_2
		{
			OFFSET	0	112	-10
			CHANNELS 3  Xrotation Yrotation Zrotation
			JOINT spine_3
			{
				OFFSET	0	206.5	19.3
				CHANNELS 3  Xrotation Yrotation Zrotation
				JOINT spine_4
				{
					OFFSET	0	110.4	14.6
					CHANNELS 3  Xrotation Yrotation Zrotation
					JOINT neck_1
					{
						OFFSET	0	71.8	-50.3
						CHANNELS 3  Xrotation Yrotation Zrotation
						JOINT neck_2
						{
							OFFSET	0	86.2	-25.8
							CHANNELS 3  Xrotation Yrotation Zrotation
							JOINT head_ee
							{
								OFFSET	0	179.8	-8.7
								CHANNELS 3  Xrotation Yrotation Zrotation
								End Site
								{
									OFFSET	1	0	0
								}
							}
						}
					}
					JOINT left_clavicle
					{
						OFFSET	-43.2	22.4	-70.8
						CHANNELS 3  Xrotation Yrotation Zrotation
						JOINT left_shoulder
						{
							OFFSET	-93.9	-5.79999	48.7
							CHANNELS 3  Xrotation Yrotation Zrotation
							JOINT left_elbow
							{
								OFFSET	-291.4	-30.8	15.2
								CHANNELS 3  Xrotation Yrotation Zrotation
								JOINT left_lowarm_twist
								{
									OFFSET	-110.7	-3.89999	13.6
									CHANNELS 3  Xrotation Yrotation Zrotation
									JOINT left_hand
									{
										OFFSET	-110.7	-3.89999	13.6
										CHANNELS 3  Xrotation Yrotation Zrotation
										JOINT left_ee
										{
											OFFSET	-80.8	-5.10001	12.1
											CHANNELS 3  Xrotation Yrotation Zrotation
											End Site
											{
												OFFSET	1	0	0
											}
										}
									}
								}
							}
						}
					}
					JOINT right_clavicle
					{
						OFFSET	43.2	22.4	-70.8
						CHANNELS 3  Xrotation Yrotation Zrotation
						JOINT right_shoulder
						{
							OFFSET	93.9	-5.79999	48.7
							CHANNELS 3  Xrotation Yrotation Zrotation
							JOINT right_elbow
							{
								OFFSET	291.4	-30.8	15.2
								CHANNELS 3  Xrotation Yrotation Zrotation
								JOINT right_lowarm_twist
								{
									OFFSET	110.7	-3.89999	13.6
									CHANNELS 3  Xrotation Yrotation Zrotation
									JOINT right_hand
									{
										OFFSET	110.7	-3.89999	13.6
										CHANNELS 3  Xrotation Yrotation Zrotation
										JOINT right_ee
										{
											OFFSET	80.8	-5.10001	12.1
											CHANNELS 3  Xrotation Yrotation Zrotation
											End Site
											{
												OFFSET	1	0	0
											}
										}
									}
								}
							}
						}
					}
				}
			}
		}
	}
	JOINT left_hip
	{
		OFFSET	-82.8	-127.5	0.300001
		CHANNELS 3  Xrotation Yrotation Zrotation
		JOINT left_knee
		{
			OFFSET	-28.2	-396.7	2.2
			CHANNELS 3  Xrotation Yrotation Zrotation
			JOINT left_ankle
			{
				OFFSET	-11.7	-411.3	35.4
				CHANNELS 3  Xrotation Yrotation Zrotation
				JOINT left_toes
				{
					OFFSET	0	-60	-88.6
					CHANNELS 3  Xrotation Yrotation Zrotation
					JOINT left_foot_ee
					{
						OFFSET	-22.5	-16.5	-42.2
						CHANNELS 3  Xrotation Yrotation Zrotation
						End Site
						{
							OFFSET	1	0	0
						}
					}
				}
			}
		}
	}
	JOINT right_hip
	{
		OFFSET	82.8	-127.5	0.300001
		CHANNELS 3  Xrotation Yrotation Zrotation
		JOINT right_knee
		{
			OFFSET	28.2	-396.7	2.2
			CHANNELS 3  Xrotation Yrotation Zrotation
			JOINT right_ankle
			{
				OFFSET	11.7	-411.3	35.4
				CHANNELS 3  Xrotation Yrotation Zrotation
				JOINT right_toes
				{
					OFFSET	0	-60	-88.6
					CHANNELS 3  Xrotation Yrotation Zrotation
					JOINT right_foot_ee
					{
						OFFSET	22.5	-16.5	-42.2
						CHANNELS 3  Xrotation Yrotation Zrotation
						End Site
						{
							OFFSET	1	0	0
						}
					}
				}
			}
		}
	}
}
MOTION
Frames: 9
Frame Time: 0.02
612.539047992 709.641 -1140.59520052 -166.497144719 -39.8905689163 -179.904260146 5.25413 -0.103089 2.24248 5.25689 -0.245538 2.23138 5.24484 -0.511675 2.18578 5.23821 -0.160142 2.23913 -13.1042 13.8037 1.63009 -13.5484 25.2697 5.84315 -0.0 0.0 -0.0 1.74767 9.46053 4.15421 -14.0144 -28.487 59.6877 0.430834 -12.0477 0.0454639 35.9973 -0.157602 -4.52097 -0.559354 14.5299 2.46828 -0.0 0.0 -0.0 7.40538 -5.96227 -14.278 -45.7138 43.5052 -48.3382 0.547798 15.1825 -0.0730072 41.8077 0.446611 5.20518 -0.377756 3.69636 4.1094 0.0 0.0 0.0 19.1554 -17.5689 18.375 -22.0953 0.264865 3.35937 24.9165 24.7115 -3.49205 8.88033 -0.0 -0.0 -0.0 0.0 -0.0 19.9321 21.7284 12.311 -26.9733 -0.148045 -4.09862 38.7944 -26.4143 5.09721 -29.0281 0.0 0.0 0.0 0.0 0.0 
621.997166519 710.848 -1133.58266358 -167.823707996 -40.310123555 179.12622656 4.91536 -0.193232 2.23522 4.91808 -0.335038 2.21841 4.9029 -0.611929 2.15853 4.8965 -0.263438 2.22804 -13.3905 13.9069 2.06993 -13.8493 25.2254 6.35921 -0.0 0.0 -0.0 1.69473 8.73635 4.00483 -13.0835 -28.8139 59.2908 0.46544 -12.9837 0.0529637 36.1687 -0.165128 -4.54156 -0.571049 14.326 2.31011 -0.0 0.0 -0.0 7.28017 -6.43963 -14.0272 -46.1471 43.1731 -48.4825 0.532024 14.7647 -0.0689317 41.8131 0.446912 5.2058 -0.398004 3.51794 4.16931 0.0 0.0 0.0 19.0314 -18.1482 18.8478 -24.8415 0.206842 3.77677 25.6204 24.5254 -3.5751 8.86446 -0.0 -0.0 -0.0 0.0 -0.0 20.4717 22.8594 12.6241 -27.0148 -0.146781 -4.10487 39.3224 -26.4773 5.15181 -28.5332 0.0 0.0 0.0 0.0 0.0 
645.072152235 713.097 -1124.20635524 -167.281243041 -41.0253175973 179.095415692 4.97477 0.176748 2.16261 4.97737 0.0388107 2.16947 4.97664 -0.231847 2.1574 4.97017 0.111701 2.16694 -14.6948 13.9376 2.49462 -15.2423 25.1655 7.08332 -0.0 0.0 -0.0 2.08608 8.39211 4.66661 -10.4211 -25.7724 58.3404 0.873747 -23.4041 0.18098 36.5125 -0.180401 -4.58277 -0.515208 9.12129 0.467198 -0.0 0.0 -0.0 7.10362 -7.8927 -13.6502 -47.8164 41.6884 -49.3912 0.398034 11.1544 -0.0388677 41.9221 0.452996 5.21835 -0.369166 2.8129 3.67217 0.0 0.0 0.0 13.7335 -20.385 19.3458 -14.0916 0.319223 2.13353 25.7979 24.9633 -3.60582 7.1186 -0.0 -0.0 -0.0 0.0 -0.0 26.4769 23.5426 12.9792 -28.0979 -0.112209 -4.26749 38.2106 -25.2485 5.00047 -28.5267 0.0 0.0 0.0 0.0 0.0 
650.224086274 712.31 -1127.14068357 -165.878594676 -42.0271883481 -179.739496191 5.03136 0.257395 2.11244 5.03384 0.122484 2.12453 5.03624 -0.140954 2.12338 5.03 0.196086 2.11901 -15.7383 13.5143 1.62775 -16.3652 24.9551 6.37739 -0.0 0.0 -0.0 2.21862 7.80664 4.85976 -9.39383 -27.029 57.6058 0.925838 -24.6374 0.202186 36.5858 -0.183695 -4.59156 -0.492287 7.26378 -0.17445 -0.0 0.0 -0.0 7.17876 -8.15497 -13.7784 -48.2814 41.8967 -49.5752 0.353646 9.93677 -0.0307434 42.4042 0.480187 5.27371 -0.53803 2.03301 4.47302 0.0 0.0 0.0 13.4342 -21.2179 19.3905 -11.7783 0.303003 1.77899 23.2635 25.3544 -3.29716 7.16054 -0.0 -0.0 -0.0 0.0 -0.0 27.0788 25.8228 13.2933 -20.6561 -0.287262 -3.13969 34.8467 -24.7605 4.63889 -28.6057 0.0 0.0 0.0 0.0 0.0 
655.241949027 713.488 -1130.77994643 -164.111083881 -43.5194672838 -177.64209311 5.17256 0.235634 1.90152 5.17456 0.114181 1.91265 5.17656 -0.118323 1.9124 5.1715 0.185134 1.9071 -16.1932 13.8068 2.93081 -16.8253 24.8136 7.80322 -0.0 0.0 -0.0 2.19663 7.28967 4.78433 -9.19115 -27.209 57.1604 1.06747 -27.8688 0.264858 36.7446 -0.190859 -4.61055 -0.446166 7.15182 0.077692 -0.0 0.0 -0.0 7.40923 -8.63628 -14.18 -48.5742 41.4346 -49.4067 0.295762 8.3354 -0.0215519 42.5347 0.487626 5.28865 -0.49404 1.81689 4.08387 0.0 0.0 0.0 13.0183 -21.77 18.3675 -9.41077 0.271597 1.4171 24.7923 25.6976 -3.49666 7.30069 -0.0 -0.0 -0.0 0.0 -0.0 28.6269 26.4188 12.4866 -19.2777 -0.303533 -2.92882 33.6313 -24.7863 4.50898 -28.5141 0.0 0.0 0.0 0.0 0.0 
663.994892565 706.155 -1134.57184304 -162.575673653 -45.1521404347 -174.903624314 5.14078 0.302653 1.89496 5.14275 0.181481 1.91037 5.14702 -0.0521928 1.91826 5.14197 0.25136 1.90244 -17.1974 13.2413 3.44978 -17.8133 23.5359 8.28773 -0.0 0.0 -0.0 2.06388 6.63051 4.49842 -8.10588 -26.3317 56.7001 1.20474 -30.8273 0.332162 36.7818 -0.192545 -4.615 -0.382377 3.40434 -1.09863 -0.0 0.0 -0.0 7.3807 -8.86429 -14.1176 -47.9512 41.1922 -50.3526 0.241383 6.81887 -0.0143807 43.0136 0.515222 5.34335 -0.367851 1.27209 3.00225 0.0 0.0 0.0 11.6054 -22.6043 17.0567 -7.37399 0.232631 1.107 24.8354 26.2088 -3.51293 6.90689 -0.0 -0.0 -0.0 0.0 -0.0 32.2694 25.7619 9.94765 -15.2003 -0.32192 -2.30362 31.2317 -24.319 4.23134 -29.008 0.0 0.0 0.0 0.0 0.0 
671.948427257 702.112 -1137.25593646 -161.243779736 -46.5307513611 -172.724396096 5.33811 0.375375 1.86657 5.34001 0.255861 1.88666 5.3466 0.0311943 1.90367 5.34169 0.331399 1.87487 -16.8691 13.4975 3.74056 -17.4736 23.8342 8.58162 -0.0 0.0 -0.0 2.19966 6.40181 4.72644 -6.88669 -25.2192 55.9038 1.29979 -32.775 0.382255 36.6488 -0.186528 -4.59909 -0.470668 4.24209 -1.32325 -0.0 0.0 -0.0 7.45249 -8.68695 -14.2568 -47.8378 40.9409 -51.0255 0.211448 5.97979 -0.0110441 43.2257 0.527592 5.36751 -0.399528 0.771287 2.99975 0.0 0.0 0.0 9.98993 -23.2103 15.9309 -4.58731 0.161505 0.685302 24.8843 27.4768 -3.54765 6.94425 -0.0 -0.0 -0.0 0.0 -0.0 34.3211 24.5627 7.42909 -12.4677 -0.309334 -1.88458 30.6263 -25.5158 4.19234 -29.1261 0.0 0.0 0.0 0.0 0.0 
673.480612911 702.112 -1144.00610032 -160.760524955 -47.8313552541 -172.065612449 5.33811 0.375375 1.86657 5.34001 0.255861 1.88666 5.3466 0.0311943 1.90367 5.34169 0.331399 1.87487 -16.8691 13.4975 3.74056 -17.4736 23.8342 8.58162 -0.0 0.0 -0.0 2.19966 6.40181 4.72644 -6.88669 -25.2192 55.9038 1.29979 -32.775 0.382255 36.6488 -0.186528 -4.59909 -0.470668 4.24209 -1.32325 -0.0 0.0 -0.0 7.45249 -8.68695 -14.2568 -47.8378 40.9409 -51.0255 0.211448 5.97979 -0.0110441 43.2257 0.527592 5.36751 -0.399528 0.771287 2.99975 0.0 0.0 0.0 9.98993 -23.2103 15.9309 -4.58731 0.161505 0.685302 24.8843 27.4768 -3.54765 6.94425 -0.0 -0.0 -0.0 0.0 -0.0 34.3211 24.5627 7.42909 -12.4677 -0.309334 -1.88458 30.6263 -25.5158 4.19234 -29.1261 0.0 0.0 0.0 0.0 0.0 
689.406046944 700.74 -1142.41470454 -159.687583273 -49.362503666 -170.328466427 5.26934 0.417542 1.79185 5.27108 0.302695 1.81478 5.27901 0.084048 1.83792 5.27449 0.373211 1.8016 -16.7167 12.8594 2.50606 -17.3053 23.2807 7.15465 -0.0 0.0 -0.0 2.23278 6.948 4.82492 -6.0715 -25.0345 55.53 1.38829 -34.5151 0.431294 36.8409 -0.195226 -4.62206 -0.379431 3.02408 -1.24131 -0.0 0.0 -0.0 7.36422 -9.29628 -14.0677 -47.5205 40.6131 -51.9614 0.188148 5.32489 -0.00874931 43.2155 0.526994 5.36635 -0.507261 0.308519 3.52223 0.0 0.0 0.0 8.99334 -23.809 15.2342 -4.64975 0.163323 0.694712 24.8492 27.4414 -3.54238 6.67358 -0.0 -0.0 -0.0 0.0 -0.0 36.1534 23.8228 5.86115 -10.4761 -0.287579 -1.57978 29.7365 -24.9655 4.07598 -29.2194 0.0 0.0 0.0 0.0 0.0 
